<svg xmlns="http://www.w3.org/2000/svg" version="1.1" xmlns:xlink="http://www.w3.org/1999/xlink" xmlns:svgjs="http://svgjs.com/svgjs" width="512" height="512" x="0" y="0" viewBox="0 0 24 24" style="enable-background:new 0 0 512 512" xml:space="preserve" class=""><g><symbol id="d" viewBox="0 -48 48 48"></symbol><symbol id="c" viewBox="0 -48 48 48"><g clip-path="url(#a)"><g fill="none" stroke="#000" stroke-miterlimit="10" stroke-width=".25"><path d="M2-48V0M4-48V0M6-48V0M8-48V0M10-48V0M12-48V0M14-48V0M16-48V0M18-48V0M20-48V0M22-48V0M24-48V0M26-48V0M28-48V0M30-48V0M32-48V0M34-48V0M36-48V0M38-48V0M40-48V0M42-48V0M44-48V0M46-48V0" fill=""></path></g><g fill="none" stroke="#000" stroke-miterlimit="10" stroke-width=".25"><path d="M0-2h48M0-4h48M0-6h48M0-8h48M0-10h48M0-12h48M0-14h48M0-16h48M0-18h48M0-20h48M0-22h48M0-24h48M0-26h48M0-28h48M0-30h48M0-32h48M0-34h48M0-36h48M0-38h48M0-40h48M0-42h48M0-44h48M0-46h48" fill=""></path></g><path d="M47.75-.25v-47.5H.25v47.5zM48 0H0v-48h48z" fill="#ff0c0e" data-original="#000000" class=""></path></g></symbol><clipPath id="a"><path d="M0-48h48V0H0z" fill="#ff0c0e" data-original="#000000" class=""></path></clipPath><symbol id="e" viewBox="0 -48 48 48"><g opacity=".4"><g clip-path="url(#b)"><path d="M47.75-.25v-47.5H.25v47.5zM48 0H0v-48h48z" fill="#ff0c0e" data-original="#000000" class=""></path></g></g></symbol><clipPath id="b"><path d="M0-48h48V0H0z" fill="#ff0c0e" data-original="#000000" class=""></path></clipPath><path fill="#ff0c0e" d="M9 11H6a2 2 0 0 1-2-2V6a2 2 0 0 1 2-2h3a2 2 0 0 1 2 2v3a2 2 0 0 1-2 2z" data-original="#00d6a2" class=""></path><path d="M16.5 11a3.5 3.5 0 1 1 0-7 3.5 3.5 0 0 1 0 7z" fill="#ff0c0e" data-original="#000000" class=""></path><path fill="#ff0c0e" d="M18 20h-3a2 2 0 0 1-2-2v-3a2 2 0 0 1 2-2h3a2 2 0 0 1 2 2v3a2 2 0 0 1-2 2zM9 20H6a2 2 0 0 1-2-2v-3a2 2 0 0 1 2-2h3a2 2 0 0 1 2 2v3a2 2 0 0 1-2 2z" data-original="#00d6a2" class=""></path></g></svg>