<svg xmlns="http://www.w3.org/2000/svg" version="1.1" xmlns:xlink="http://www.w3.org/1999/xlink" xmlns:svgjs="http://svgjs.com/svgjs" width="512" height="512" x="0" y="0" viewBox="0 0 512 512" style="enable-background:new 0 0 512 512" xml:space="preserve" class=""><g><linearGradient id="a" x1="57.796" x2="454.204" y1="40.477" y2="436.885" gradientTransform="matrix(1 0 0 -1 0 512)" gradientUnits="userSpaceOnUse"><stop stop-opacity="1" stop-color="#9f1213" offset="0"></stop><stop stop-opacity="1" stop-color="#ff0c0e" offset="0.5"></stop><stop stop-opacity="1" stop-color="#ff0c0e" offset="1"></stop></linearGradient><path fill="url(#a)" d="m402.758 34.637-101.874.004v-8C300.883 11.95 288.93 0 274.242 0h-36.484c-14.688 0-26.641 11.949-26.641 26.641v8l-101.874-.004c-14.625 0-26.524 11.898-26.524 26.528v424.308c0 14.629 11.898 26.528 26.524 26.528h293.515c14.625 0 26.524-11.898 26.524-26.528V61.165c-.001-14.629-11.9-26.528-26.524-26.528zM219.117 50.641c4.421 0 8-3.582 8-8v-16c0-5.867 4.773-10.641 10.641-10.641h36.484c5.867 0 10.641 4.773 10.641 10.641v16c0 4.418 3.578 8 8 8h35.757v20.16c0 6.793-5.524 12.32-12.32 12.32H195.68c-6.796 0-12.32-5.527-12.32-12.32v-20.16zm194.164 434.831c0 5.804-4.719 10.527-10.523 10.527H109.242c-5.804 0-10.523-4.723-10.523-10.527V61.165c0-5.804 4.719-10.527 10.523-10.527h58.117v20.164c0 15.618 12.703 28.32 28.32 28.32H316.32c15.618 0 28.32-12.703 28.32-28.32V50.637h58.117c5.804 0 10.523 4.723 10.523 10.527v424.307h.001zM192.687 163.828l-8.461-1.234-3.774-7.656c-2.555-5.195-7.742-8.43-13.539-8.437h-.024c-5.782 0-10.977 3.218-13.547 8.41l-3.797 7.683-8.446 1.23c-12.388 1.815-17.337 17.06-8.359 25.793l6.109 5.942-1.453 8.449c-2.12 12.405 10.921 21.739 21.953 15.914l7.547-3.981 7.539 3.976c11.139 5.873 24.047-3.605 21.961-15.894l-1.437-8.469 6.102-5.949c8.945-8.715 4.038-23.959-8.374-25.777zm-9.233 20.594a15.126 15.126 0 0 0-4.352 13.352l1.219 7.156-6.36-3.356a15.103 15.103 0 0 0-14.11-.004l-6.383 3.363 1.227-7.125a15.119 15.119 0 0 0-4.359-13.398l-5.148-5.012 7.117-1.039a15.126 15.126 0 0 0 11.375-8.254l3.211-6.492 3.195 6.489a15.166 15.166 0 0 0 11.375 8.262l7.148 1.039zm48.351-20.985c0-4.418 3.578-8 8-8h52.007c4.421 0 8 3.582 8 8s-3.578 8-8 8h-52.007a7.997 7.997 0 0 1-8-8zm152.039 41.31c0 4.418-3.578 8-8 8h-136.04c-4.421 0-8-3.582-8-8s3.578-8 8-8h136.039a7.997 7.997 0 0 1 8.001 8zm-191.157 71.069-8.461-1.238-3.774-7.661c-5.532-11.223-21.543-11.267-27.109-.024l-3.797 7.684-8.446 1.23c-12.388 1.815-17.337 17.06-8.359 25.793l6.109 5.938-1.453 8.449c-2.109 12.339 10.875 21.773 21.945 15.918l7.563-3.985 7.532 3.981c11.071 5.844 24.058-3.542 21.961-15.894l-1.445-8.473 6.109-5.945c8.959-8.738 4.013-23.967-8.375-25.773zm-9.233 20.594a15.113 15.113 0 0 0-4.352 13.343v.004l1.219 7.156-6.36-3.36a15.085 15.085 0 0 0-14.101-.004l-6.391 3.367 1.227-7.129a15.076 15.076 0 0 0-4.359-13.394l-5.148-5.012 7.117-1.039a15.126 15.126 0 0 0 11.375-8.254l3.211-6.496 3.195 6.485a15.122 15.122 0 0 0 11.375 8.262l7.148 1.047zm48.351-20.989c0-4.418 3.578-8 8-8h52.007c4.421 0 8 3.582 8 8s-3.578 8-8 8h-52.007a7.997 7.997 0 0 1-8-8zm152.039 41.305c0 4.418-3.578 8-8 8h-136.04c-4.421 0-8-3.582-8-8 0-4.417 3.578-8 8-8h136.039a7.999 7.999 0 0 1 8.001 8zm-191.157 71.067-8.461-1.234-3.774-7.656c-5.559-11.271-21.569-11.219-27.109-.027l-3.797 7.684-8.453 1.234c-12.39 1.815-17.326 17.059-8.351 25.789l6.109 5.942-1.453 8.449c-2.107 12.332 10.859 21.771 21.953 15.914l7.547-3.981 7.539 3.976c11.028 5.843 24.062-3.51 21.961-15.894l-1.445-8.469 6.109-5.945c8.944-8.725 4.037-23.964-8.375-25.782zm-9.233 20.601a15.113 15.113 0 0 0-4.352 13.343v.004l1.219 7.152-6.36-3.356a15.103 15.103 0 0 0-14.11-.004l-6.383 3.363 1.227-7.125a15.1 15.1 0 0 0-4.359-13.394l-5.148-5.015 7.132-1.039a15.138 15.138 0 0 0 11.359-8.25l3.211-6.496 3.195 6.485a15.144 15.144 0 0 0 11.375 8.266l7.148 1.043zm48.351-20.988c0-4.418 3.578-8 8-8h52.007c4.421 0 8 3.582 8 8 0 4.417-3.578 8-8 8h-52.007c-4.422 0-8-3.582-8-8zm152.039 41.304c0 4.418-3.578 8-8 8h-136.04c-4.421 0-8-3.582-8-8 0-4.417 3.578-8 8-8h136.039a8 8 0 0 1 8.001 8z" data-original="url(#a)" class=""></path></g></svg>