<svg xmlns="http://www.w3.org/2000/svg" version="1.1" xmlns:xlink="http://www.w3.org/1999/xlink" xmlns:svgjs="http://svgjs.com/svgjs" width="512" height="512" x="0" y="0" viewBox="0 0 64 64" style="enable-background:new 0 0 512 512" xml:space="preserve" class=""><g><path d="M36.823 33H31v3c0 .352-.072.686-.184 1H34c.505 0 .973.137 1.391.358.56-1.243 1.041-2.714 1.432-4.358zM43 11c0-1.37.278-2.676.779-3.866a19.007 19.007 0 0 0-7.897-3.714c1.292 1.803 2.292 4.48 2.982 7.58zM36.832 11C35.655 6.022 33.765 3 32 3s-3.655 3.022-4.832 8zM37.989 23H26.026c.024 1.357.095 2.693.216 4H28c1.654 0 3 1.346 3 3v1h6.24c.44-2.44.7-5.158.749-8zM28 37a1 1 0 0 0 1-1v-6a1 1 0 0 0-1-1h-1v4h-6v-4h-1a1 1 0 0 0-1 1v6a1 1 0 0 0 1 1h6zM37.242 13H26.758c-.424 2.355-.69 5.051-.741 8h11.965c-.05-2.949-.317-5.645-.74-8zM26 47h8a1 1 0 0 0 1-1v-6a1 1 0 0 0-1-1h-1v4h-6v-4h-1a1 1 0 0 0-1 1v6a1 1 0 0 0 1 1zM39.256 13c.437 2.542.686 5.279.734 8h7.474l-2.785-4.178A9.973 9.973 0 0 1 43.164 13z" fill="#ff0c0e" data-original="#000000" class=""></path><path d="m15.202 23-1.806 2.709A18.828 18.828 0 0 0 17 33.625V30c0-1.654 1.346-3 3-3h4.236a56.142 56.142 0 0 1-.21-4zM17 39h2v2h-2z" fill="#ff0c0e" data-original="#000000" class=""></path><path d="M13 40v6a1 1 0 0 0 1 1h8a1 1 0 0 0 1-1v-6a1 1 0 0 0-1-1h-1v4h-6v-4h-1a1 1 0 0 0-1 1zM23 29h2v2h-2zM29 39h2v2h-2z" fill="#ff0c0e" data-original="#000000" class=""></path><circle cx="49" cy="57" r="4" fill="#ff0c0e" data-original="#000000" class=""></circle><path d="M46 33h1.465a19.056 19.056 0 0 0 3.143-7.286L48.798 23h-8.809c-.11 6.43-1.275 12.321-3.172 16.003.111.313.183.646.183.997v.309a18.51 18.51 0 0 0 2.018-.674C39.21 35.946 42.264 33 46 33z" fill="#ff0c0e" data-original="#000000" class=""></path><path d="M43 40c0-1.654 1.346-3 3-3h12.889A6.975 6.975 0 0 0 54 35h-8c-2.757 0-5 2.243-5 5v17h2c0-3.309 2.691-6 6-6s6 2.691 6 6h4c1.103 0 2-.897 2-2v-8H43z" fill="#ff0c0e" data-original="#000000" class=""></path><path d="M46 39a1 1 0 0 0-1 1v5h16v-3a6.955 6.955 0 0 0-.685-3zM37 46c0 .352-.072.686-.184 1H39v-5.204c-.656.232-1.324.433-2 .599zM11.723 24.613l5.934-8.9A7.986 7.986 0 0 0 19 11.275V11c0-4.411-3.589-8-8-8s-8 3.589-8 8v.275c0 1.584.465 3.118 1.344 4.438l5.934 8.9c.322.485 1.122.485 1.445 0zM6 11a5 5 0 1 1 10.001.001A5 5 0 0 1 6 11zM25.136 11c.69-3.1 1.69-5.777 2.982-7.579a19.013 19.013 0 0 0-7.897 3.714A9.931 9.931 0 0 1 21 11zM24.009 21c.049-2.721.297-5.458.734-8h-3.909a9.967 9.967 0 0 1-1.515 3.822L16.535 21z" fill="#ff0c0e" data-original="#000000" class=""></path><circle cx="21" cy="57" r="4" fill="#ff0c0e" data-original="#000000" class=""></circle><path d="M53 3c-4.411 0-8 3.589-8 8v.275c0 1.584.465 3.118 1.344 4.438l5.934 8.9c.322.484 1.123.484 1.445 0l5.934-8.9A7.986 7.986 0 0 0 61 11.275V11c0-4.411-3.589-8-8-8zm0 13a5 5 0 1 1 .001-10.001A5 5 0 0 1 53 16zM26 49H11v8h4c0-3.309 2.691-6 6-6s6 2.691 6 6h12v-8h-5z" fill="#ff0c0e" data-original="#000000" class=""></path></g></svg>