<svg xmlns="http://www.w3.org/2000/svg" fill="#fff" version="1.1" xmlns:xlink="http://www.w3.org/1999/xlink" xmlns:svgjs="http://svgjs.com/svgjs" width="512" height="512" x="0" y="0" viewBox="0 0 512 512" style="enable-background:new 0 0 512 512" xml:space="preserve" class=""><g><path d="M497 201h-42.438a203.816 203.816 0 0 0-19.274-46.505l30.017-30.017c5.858-5.858 5.858-15.355 0-21.213l-56.568-56.569c-5.857-5.858-15.355-5.857-21.213 0l-30.018 30.017a203.864 203.864 0 0 0-46.505-19.275V15c0-8.284-6.716-15-15-15h-80c-8.284 0-15 6.716-15 15v42.438a203.864 203.864 0 0 0-46.505 19.275l-30.018-30.017c-5.857-5.857-15.355-5.858-21.213 0l-56.568 56.569c-5.858 5.858-5.858 15.355 0 21.213l30.017 30.017A203.771 203.771 0 0 0 57.44 201H15c-8.284 0-15 6.716-15 15v80c0 8.284 6.716 15 15 15h42.438a203.816 203.816 0 0 0 19.274 46.505l-30.017 30.017c-5.858 5.858-5.858 15.355 0 21.213l56.568 56.569c5.857 5.858 15.355 5.857 21.213 0l30.018-30.017a203.864 203.864 0 0 0 46.505 19.275V497c0 8.284 6.716 15 15 15h80c8.284 0 15-6.716 15-15v-42.438a203.864 203.864 0 0 0 46.505-19.275l30.018 30.017c5.857 5.857 15.355 5.858 21.213 0l56.568-56.569c5.858-5.858 5.858-15.355 0-21.213l-30.017-30.017A203.771 203.771 0 0 0 454.56 311H497c8.284 0 15-6.716 15-15v-80c0-8.284-6.716-15-15-15zM256 371c-63.411 0-115-51.589-115-115s51.589-115 115-115 115 51.589 115 115-51.589 115-115 115z" data-original="#000000" class=""></path></g></svg>