<svg xmlns="http://www.w3.org/2000/svg" version="1.1" xmlns:xlink="http://www.w3.org/1999/xlink" xmlns:svgjs="http://svgjs.com/svgjs" width="512" height="512" x="0" y="0" viewBox="0 0 512 512" style="enable-background:new 0 0 512 512" xml:space="preserve" class=""><g><path d="M272 416a56 56 0 1 0-56-56 56.063 56.063 0 0 0 56 56Zm0-96a40 40 0 1 1-40 40 40.046 40.046 0 0 1 40-40Z" fill="#ffffff" data-original="#000000" class=""></path><path d="m383.331 389.047 18.534-4.444a8 8 0 0 0 6.135-7.78v-33.646a8 8 0 0 0-6.135-7.78l-18.533-4.443a19.467 19.467 0 0 1-12.06-29.101l10.024-16.358a8 8 0 0 0-1.164-9.837L356.34 251.87a8 8 0 0 0-9.836-1.164l-16.358 10.024a19.467 19.467 0 0 1-29.1-12.06l-4.444-18.534a8 8 0 0 0-7.78-6.135h-33.646a8 8 0 0 0-7.78 6.135l-4.443 18.533a19.467 19.467 0 0 1-29.101 12.06l-16.358-10.024-8.36 13.643 16.357 10.023a35.467 35.467 0 0 0 53.02-21.97l2.973-12.4h21.03l2.973 12.4a35.466 35.466 0 0 0 53.019 21.971l10.98-6.728 14.871 14.87-6.728 10.98a35.467 35.467 0 0 0 21.97 53.02l12.4 2.972v21.03l-12.4 2.973a35.466 35.466 0 0 0-21.971 53.019l6.728 10.98-14.87 14.871-10.98-6.728a35.467 35.467 0 0 0-53.02 21.97l-2.972 12.4h-21.03l-2.973-12.4a35.466 35.466 0 0 0-53.019-21.971l-16.357 10.023 8.36 13.643 16.357-10.024a19.467 19.467 0 0 1 29.1 12.06l4.444 18.534a8 8 0 0 0 7.78 6.135h33.646a8 8 0 0 0 7.78-6.135l4.443-18.533a19.467 19.467 0 0 1 29.101-12.06l16.358 10.024a8.002 8.002 0 0 0 9.837-1.164l23.789-23.79a8 8 0 0 0 1.164-9.837l-10.024-16.358a19.467 19.467 0 0 1 12.06-29.1Z" fill="#ffffff" data-original="#000000" class=""></path><path d="M488 240h-32v-40a8 8 0 0 0-8-8h-32a8 8 0 0 0-8 8v40h-24v16h96v32h-88v16h88v32h-56v16h56v32h-56v16h56v32h-80v16h8v40a8 8 0 0 0 8 8h32a8 8 0 0 0 8-8v-40h32a8 8 0 0 0 8-8V248a8 8 0 0 0-8-8Zm-48 0h-16v-32h16Zm0 240h-16v-32h16ZM138.281 245.72l-4.562 15.337C151.874 266.457 160 274.462 160 280c0 4.969-6.26 10.838-16.337 15.316C131.064 300.916 114.137 304 96 304c-39.068 0-64-14.215-64-24 0-5.538 8.126-13.543 26.281-18.943L53.72 245.72C29.748 252.85 16 265.346 16 280v178.286c0 11.389 9.246 21.477 26.036 28.405C56.581 492.694 75.746 496 96 496s39.419-3.306 53.964-9.309c16.79-6.928 26.036-17.016 26.036-28.405V280c0-14.654-13.748-27.148-37.719-34.28ZM48 471.843c-9.723-4.04-16-9.352-16-13.556v-17.71a76.177 76.177 0 0 0 16 7.854Zm40 7.963a144.745 144.745 0 0 1-24-3.056V452.9a153.551 153.551 0 0 0 24 2.917Zm40-3.056a144.745 144.745 0 0 1-24 3.056v-23.989a153.551 153.551 0 0 0 24-2.916Zm32-18.463c0 4.204-6.277 9.516-16 13.556V448.43a76.177 76.177 0 0 0 16-7.853ZM160 416c0 4.969-6.26 10.838-16.337 15.316C131.064 436.916 114.137 440 96 440c-39.068 0-64-14.215-64-24V304.577C46.356 314.075 69.242 320 96 320s49.644-5.925 64-15.423Z" fill="#ffffff" data-original="#000000" class=""></path><path d="M48 328h16v88H48zM88 336h16v88H88zM128 328h16v88h-16zM88 216a8 8 0 0 1 16 0v64h16v-64a24 24 0 0 0-48 0v64h16ZM112 176h116l21.6 28.8a8 8 0 0 0 12.8 0L284 176h116a24.027 24.027 0 0 0 24-24V40a24.027 24.027 0 0 0-24-24H112a24.027 24.027 0 0 0-24 24v112a24.027 24.027 0 0 0 24 24Zm-8-136a8.01 8.01 0 0 1 8-8h288a8.01 8.01 0 0 1 8 8v112a8.01 8.01 0 0 1-8 8H280a8 8 0 0 0-6.4 3.2L256 186.667 238.4 163.2a8 8 0 0 0-6.4-3.2H112a8.01 8.01 0 0 1-8-8Z" fill="#ffffff" data-original="#000000" class=""></path><path d="M176 144h32a48 48 0 0 0 0-96h-32a48 48 0 0 0 0 96Zm62.987-56h-15.666a47.846 47.846 0 0 0-11.362-23.746A32.08 32.08 0 0 1 238.987 88Zm-15.666 16h15.666a32.08 32.08 0 0 1-27.028 23.746A47.846 47.846 0 0 0 223.32 104ZM176 64a32 32 0 1 1-32 32 32.037 32.037 0 0 1 32-32ZM320 99.313l10.343 10.344a8.003 8.003 0 0 0 11.314 0L376 75.314V96h16V56a8 8 0 0 0-8-8h-40v16h20.686L336 92.687l-10.343-10.344a8.003 8.003 0 0 0-11.314 0l-48 48 11.314 11.314Z" fill="#ffffff" data-original="#000000" class=""></path></g></svg>