<svg xmlns="http://www.w3.org/2000/svg" version="1.1" xmlns:xlink="http://www.w3.org/1999/xlink" xmlns:svgjs="http://svgjs.com/svgjs" width="512" height="512" x="0" y="0" viewBox="0 0 512 512" style="enable-background:new 0 0 512 512" xml:space="preserve" class=""><g><path d="M486.639 424.96c-51.2-26.948-90.351-41.899-125.124-47.804l3.78-5.205a8.5 8.5 0 0 0 1.374-7.091l-7.919-31.676a183.215 183.215 0 0 0 8.201-12.646c31.889-10.82 48.051-29.124 50.714-56.175 14.507-.879 26.069-12.843 26.069-27.563v-64c0-14.626-11.418-26.513-25.779-27.537C415.94 95.693 394.129 0 256 0 117.862 0 96.051 95.693 94.046 145.263c-14.37 1.024-25.779 12.911-25.779 27.537v64c0 15.292 12.442 27.733 27.733 27.733h12.8c4.975 0 9.583-1.425 13.619-3.729 4.873 25.66 15.616 50.927 30.822 72.38l-7.919 31.676a8.532 8.532 0 0 0 1.374 7.091l3.789 5.205c-34.773 5.905-73.924 20.855-125.133 47.804C9.711 433.195 0 449.297 0 466.987v36.48A8.53 8.53 0 0 0 8.533 512h208.009l78.541-.077c.136.009.256.077.393.077h207.991a8.536 8.536 0 0 0 8.533-8.533v-36.48c0-17.69-9.719-33.792-25.361-42.027zM378.726 296.926c4.847-11.708 8.516-23.868 10.846-36.122a27.283 27.283 0 0 0 11.025 3.465c-1.476 12.211-6.903 23.663-21.871 32.657zM121.463 148.275a27.421 27.421 0 0 0-10.351-2.978c2.1-51.439 25.276-128.23 144.888-128.23 119.603 0 142.78 76.792 144.879 128.23a27.421 27.421 0 0 0-10.351 2.978C379.793 83.627 323.635 34.133 256 34.133c-67.644 0-123.802 49.494-134.537 114.142zm41.379 216.858 3.831-15.309c.034.043.068.068.102.102 20.617 22.409 46.831 38.195 76.39 41.788.017 0 .034.009.06.009l-3.866 8.687-19.294 43.409-57.223-78.686zM256 405.018l21.001 47.249H235l21-47.249zm-32.256 89.907 5.111-25.591h54.281l5.12 25.532-64.512.059zm68.181-51.106-19.294-43.409-3.857-8.687c.017 0 .034-.009.051-.009 29.559-3.592 55.782-19.379 76.39-41.788.034-.034.077-.06.102-.102l3.84 15.309-57.232 78.686zm-27.392-128.086a8.53 8.53 0 0 0-8.533 8.533 8.53 8.53 0 0 0 8.533 8.533c31.181 0 57.028-1.997 78.234-6.042-.324.427-.674.828-1.007 1.254-.299.282-.691.469-.947.802a152.72 152.72 0 0 1-9.088 10.607l-.077.077c-2.057 2.185-4.215 4.13-6.349 6.127-20.864 18.816-45.645 29.841-69.299 29.841-23.663 0-48.444-11.025-69.299-29.833-2.142-2.005-4.301-3.951-6.357-6.144-.026-.017-.043-.043-.068-.06a157.416 157.416 0 0 1-9.097-10.615c-.256-.333-.64-.521-.947-.802-20.105-25.37-33.698-59.187-33.698-97.613V170.665C136.533 104.789 190.123 51.2 256 51.2c65.869 0 119.467 53.589 119.467 119.467V230.4c0 28.339-7.467 54.127-19.379 75.938-20.378 5.88-49.639 9.395-91.555 9.395z" fill="#ff0c0e" data-original="#000000" class=""></path></g></svg>