<svg xmlns="http://www.w3.org/2000/svg" version="1.1" xmlns:xlink="http://www.w3.org/1999/xlink" xmlns:svgjs="http://svgjs.com/svgjs" width="512" height="512" x="0" y="0" viewBox="0 0 66 66" style="enable-background:new 0 0 512 512" xml:space="preserve" class=""><g><path d="M36.79 49.98H20.22c-1.2 0-2.17.97-2.17 2.17s.97 2.17 2.17 2.17h16.57c1.2 0 2.17-.97 2.17-2.17s-.98-2.17-2.17-2.17zM36.79 56.32H20.22c-1.2 0-2.17.97-2.17 2.17s.97 2.17 2.17 2.17h16.57c1.2 0 2.17-.97 2.17-2.17s-.98-2.17-2.17-2.17zM21.84 62.9c0 1.16.94 2.1 2.1 2.1h9.14a2.1 2.1 0 0 0 2.1-2.1v-.24H21.84zM60.3 19.2v-5.33l-4.2-.57c-.25-.88-.6-1.72-1.03-2.5l2.56-3.37-3.77-3.77-3.37 2.57c-.78-.44-1.62-.78-2.5-1.03L47.43 1h-5.34l-.56 4.2c-.88.25-1.72.59-2.5 1.03l-3.37-2.57-3.77 3.77 2.56 3.37c-.43.78-.78 1.62-1.03 2.5l-4.19.57v5.33l4.19.57c.25.88.6 1.71 1.03 2.5l-2.56 3.36 3.77 3.77 3.37-2.56c.78.43 1.62.78 2.5 1.03l.56 4.2h5.34l.56-4.2c.88-.25 1.72-.6 2.5-1.03l3.37 2.56 3.77-3.77-2.56-3.36c.43-.79.78-1.62 1.03-2.5zm-15.54 3.77c-3.56 0-6.44-2.88-6.44-6.44 0-3.55 2.88-6.44 6.44-6.44s6.44 2.89 6.44 6.44c0 3.56-2.88 6.44-6.44 6.44zM46.54 42.46a.996.996 0 1 0-1.41 1.41l3.56 3.56c.2.2.45.29.71.29s.51-.1.71-.29a.996.996 0 0 0 0-1.41zM42.36 43.61c-.55 0-1 .45-1 1v5.03c0 .55.45 1 1 1s1-.45 1-1v-5.03c0-.55-.45-1-1-1zM52.3 38.69h-5.03c-.55 0-1 .45-1 1s.45 1 1 1h5.03c.55 0 1-.45 1-1s-.44-1-1-1zM12.47 10.01c.2.2.45.29.71.29s.51-.1.71-.29a.996.996 0 0 0 0-1.41l-3.56-3.56a.996.996 0 1 0-1.41 1.41zM16.65 8.86c.55 0 1-.45 1-1V2.83c0-.55-.45-1-1-1s-1 .45-1 1v5.03c0 .55.44 1 1 1zM12.73 12.78c0-.55-.45-1-1-1H6.7c-.55 0-1 .45-1 1s.45 1 1 1h5.03c.55 0 1-.45 1-1z" fill="#ff0000" data-original="#000000" class=""></path><path d="m40.22 33.2-.35-2.61c-.7-.3-.88-.37-1.59-.67l-2.1 1.6c-.4.3-.96.26-1.32-.09l-5-5c-.36-.36-.39-.92-.09-1.32l1.6-2.09c-.3-.71-.37-.89-.66-1.6l-2.61-.36a.994.994 0 0 1-.87-.99V13c0-.5.37-.93.87-.99l2.61-.36c.22-.53.32-.76.47-1.14-1.48-.23-3.03-.3-4.62-.13-7.79.87-14.08 7.2-14.91 15-.59 5.65 1.59 10.8 5.35 14.27 2.39 2.19 3.93 5.14 4.23 8.33h6.27v-9.96c-2.01-.46-3.51-2.25-3.51-4.39a4.511 4.511 0 0 1 9.02 0c0 2.14-1.5 3.93-3.51 4.39v9.96h6.27c.31-3.21 1.88-6.15 4.27-8.37 1.67-1.55 3.02-3.43 3.96-5.54h-2.79c-.5 0-.92-.37-.99-.87z" fill="#ff0000" data-original="#000000" class=""></path></g></svg>