<svg xmlns="http://www.w3.org/2000/svg" version="1.1" xmlns:xlink="http://www.w3.org/1999/xlink" xmlns:svgjs="http://svgjs.com/svgjs" width="512" height="512" x="0" y="0" viewBox="0 0 64 64" style="enable-background:new 0 0 512 512" xml:space="preserve" class=""><g><path d="M53 45a4 4 0 1 0 4 4 4 4 0 0 0-4-4Zm0 6a2 2 0 1 1 2-2 2 2 0 0 1-2 2Z" fill="#ffffff" data-original="#000000" class=""></path><path d="m61.24 46.03-.67-.17.36-.59a1 1 0 0 0-.15-1.22l-2.83-2.83a1.012 1.012 0 0 0-1.22-.15l-.59.36-.17-.67A1 1 0 0 0 55 40h-4a1 1 0 0 0-.97.76l-.04.15a4.987 4.987 0 0 0-1.16-3.09l1.45-1.44a9.94 9.94 0 0 0 9.64-2.57 9.028 9.028 0 0 0 2.37-8.75.986.986 0 0 0-.64-.69 1.009 1.009 0 0 0-.92.15l-4.96 3.72-3.01-3.01 3.72-4.96a1.009 1.009 0 0 0 .15-.92.986.986 0 0 0-.69-.64 9.028 9.028 0 0 0-8.75 2.37c-2.64 2.64-3.69 6.66-2.6 9.67L39.35 36h-.02L36 33.5v-2.34A10.024 10.024 0 0 0 41.95 23H42a3.009 3.009 0 0 0 3-3v-1a3.009 3.009 0 0 0-3-3v-.28A7 7 0 0 0 45 10V3a1 1 0 0 0-1-1H28a9.014 9.014 0 0 0-9 9v2a4.008 4.008 0 0 0 1.73 3.29A3 3 0 0 0 19 19v1a3.009 3.009 0 0 0 3 3h.05A10.024 10.024 0 0 0 28 31.16v2.34l-3.15 2.36-8.97-9.63-4.22-5.63a1.065 1.065 0 0 0-.41-.32L6.3 18.16a1 1 0 0 0-1.1.21L2.37 21.2a1 1 0 0 0-.21 1.1l2.12 4.95a1.065 1.065 0 0 0 .32.41l5.63 4.22 5.64 5.25a4.976 4.976 0 0 0-1.86 3.78l-.04-.15A1 1 0 0 0 13 40H9a1 1 0 0 0-.97.76l-.17.67-.59-.36a1.014 1.014 0 0 0-1.22.15l-2.83 2.83a1.012 1.012 0 0 0-.15 1.22l.36.59-.67.17A1 1 0 0 0 2 47v4a1 1 0 0 0 .76.97l.67.17-.36.59a1 1 0 0 0 .15 1.22l2.83 2.83a1 1 0 0 0 1.22.15l.59-.36.17.67A1 1 0 0 0 9 58h4a1 1 0 0 0 .97-.76l.03-.12V59a3.009 3.009 0 0 0 3 3h30a3.009 3.009 0 0 0 3-3v-1.88l.03.12A1 1 0 0 0 51 58h4a1 1 0 0 0 .97-.76l.17-.67.59.36a1 1 0 0 0 1.22-.15l2.83-2.83a1 1 0 0 0 .15-1.22l-.36-.59.67-.17A1 1 0 0 0 62 51v-4a1 1 0 0 0-.76-.97ZM46.49 31.69a1 1 0 0 0 .18-1.16c-1.14-2.28-.29-5.81 1.94-8.03a7.023 7.023 0 0 1 5.27-2.1l-3.24 4.32a1 1 0 0 0 .09 1.31l4.24 4.24a1 1 0 0 0 1.31.09l4.32-3.24a7.038 7.038 0 0 1-2.1 5.27 7.821 7.821 0 0 1-8.09 1.91 1 1 0 0 0-1.1.21l-2.05 2.06A4.916 4.916 0 0 0 45 36h-2.83ZM43 19v1a1 1 0 0 1-1 1v-3a1 1 0 0 1 1 1Zm-21 2a1 1 0 0 1-1-1v-1a1 1 0 0 1 1-1Zm0-7v.72A1.988 1.988 0 0 1 21 13v-2a7.008 7.008 0 0 1 7-7h15v6a4.971 4.971 0 0 1-1.28 3.32.942.942 0 0 0-.46-.28l-5.64-1.54a.983.983 0 0 0-1.11.44 4.485 4.485 0 0 1-1.12 1.27 5.479 5.479 0 0 1-2.28.99 7.362 7.362 0 0 0 .89-3.11A1 1 0 0 0 31 10h-1a1.006 1.006 0 0 0-.39.08l-7 3A1 1 0 0 0 22 14Zm2 8v-7.34l5.8-2.48a2.94 2.94 0 0 1-.53 1.14 5.038 5.038 0 0 1-.52.45 1.4 1.4 0 0 0-.7 1.53 1.332 1.332 0 0 0 .95.86 7.2 7.2 0 0 0 5.6-1.36 6.049 6.049 0 0 0 1.18-1.19L40 14.76V22a8 8 0 0 1-16 0Zm5.6 12.8a1.014 1.014 0 0 0 .4-.8v-2.2a10.1 10.1 0 0 0 4 0V34a1.014 1.014 0 0 0 .4.8l2.78 2.09L32 39.85l-5.18-2.96ZM6.02 26.22l-1.75-4.08 1.87-1.87 4.08 1.75 3.56 4.74-3.02 3.02Zm6.28 4.85 2.77-2.77 7.17 7.7H19a5 5 0 0 0-1.23.17Zm1.71 23.09a1.019 1.019 0 0 0-.9-.06 1.007 1.007 0 0 0-.59.68l-.3 1.22H9.78l-.3-1.22a1.007 1.007 0 0 0-.59-.68 1.019 1.019 0 0 0-.9.06l-1.08.65-1.72-1.72.65-1.08a1.019 1.019 0 0 0 .06-.9 1.007 1.007 0 0 0-.68-.59L4 50.22v-2.44l1.22-.3a1.007 1.007 0 0 0 .68-.59 1.019 1.019 0 0 0-.06-.9l-.65-1.08 1.72-1.72 1.08.64a.989.989 0 0 0 .9.07 1.007 1.007 0 0 0 .59-.68l.3-1.22h2.44l.3 1.22a1.007 1.007 0 0 0 .59.68.989.989 0 0 0 .9-.07l1.08-.64 1.72 1.72-.65 1.08a1.019 1.019 0 0 0-.06.9 1.007 1.007 0 0 0 .68.59l1.22.3v2.44l-1.22.3a1.007 1.007 0 0 0-.68.59 1.019 1.019 0 0 0 .06.9l.65 1.08-1.72 1.72ZM33.73 60h-3.46a2 2 0 1 1 3.46 0ZM39 60h-3.14a4.231 4.231 0 0 0 .14-1 4 4 0 0 0-8 0 4.231 4.231 0 0 0 .14 1H25v-2.22l1.22-.3a.984.984 0 0 0 .68-.59 1 1 0 0 0-.06-.89l-.65-1.08 1.73-1.73 1.08.65a.967.967 0 0 0 .89.06.984.984 0 0 0 .59-.68l.3-1.22h2.44l.3 1.22a.984.984 0 0 0 .59.68 1 1 0 0 0 .89-.06l1.08-.65 1.73 1.73-.65 1.08a1 1 0 0 0-.06.89.984.984 0 0 0 .68.59l1.22.3Zm9-1a1 1 0 0 1-1 1h-6v-3a1 1 0 0 0-.76-.97l-.67-.17.36-.59a1.014 1.014 0 0 0-.15-1.22l-2.83-2.83a1.014 1.014 0 0 0-1.22-.15l-.59.36-.17-.67A1 1 0 0 0 34 50h-4a1 1 0 0 0-.97.76l-.17.67-.59-.36a1.014 1.014 0 0 0-1.22.15l-2.83 2.83a1.014 1.014 0 0 0-.15 1.22l.36.59-.67.17A1 1 0 0 0 23 57v3h-6a1 1 0 0 1-1-1v-2.27l2.78-2.78a1.012 1.012 0 0 0 .15-1.22l-.36-.59.67-.17A1 1 0 0 0 20 51v-4a1 1 0 0 0-.76-.97l-.67-.17.36-.59a1 1 0 0 0-.15-1.22L16 41.27V41a3.009 3.009 0 0 1 3-3h5.73l6.77 3.87a1.044 1.044 0 0 0 1 0L39.27 38H45a3.009 3.009 0 0 1 3 3v.27l-2.78 2.78a1 1 0 0 0-.15 1.22l.36.59-.67.17A1 1 0 0 0 44 47v4a1 1 0 0 0 .76.97l.67.17-.36.59a1 1 0 0 0 .15 1.22L48 56.73Zm12-8.78-1.22.3a1.007 1.007 0 0 0-.68.59 1.019 1.019 0 0 0 .06.9l.65 1.08-1.72 1.72-1.08-.65a1.019 1.019 0 0 0-.9-.06 1.007 1.007 0 0 0-.59.68l-.3 1.22h-2.44l-.3-1.22a1.007 1.007 0 0 0-.59-.68 1.019 1.019 0 0 0-.9.06l-1.08.65-1.72-1.72.65-1.08a1.019 1.019 0 0 0 .06-.9 1.007 1.007 0 0 0-.68-.59l-1.22-.3v-2.44l1.22-.3a1.007 1.007 0 0 0 .68-.59 1.019 1.019 0 0 0-.06-.9l-.65-1.08 1.72-1.72 1.08.64a.989.989 0 0 0 .9.07 1.007 1.007 0 0 0 .59-.68l.3-1.22h2.44l.3 1.22a1.007 1.007 0 0 0 .59.68.989.989 0 0 0 .9-.07l1.08-.64 1.72 1.72-.65 1.08a1.019 1.019 0 0 0-.06.9 1.007 1.007 0 0 0 .68.59l1.22.3Z" fill="#ffffff" data-original="#000000" class=""></path><path d="M11 45a4 4 0 1 0 4 4 4 4 0 0 0-4-4Zm0 6a2 2 0 1 1 2-2 2 2 0 0 1-2 2Z" fill="#ffffff" data-original="#000000" class=""></path></g></svg>