<svg xmlns="http://www.w3.org/2000/svg" version="1.1" xmlns:xlink="http://www.w3.org/1999/xlink" xmlns:svgjs="http://svgjs.com/svgjs" width="512" height="512" x="0" y="0" viewBox="0 0 64 64" style="enable-background:new 0 0 512 512" xml:space="preserve" class=""><g><path d="M59.939 29.958a5.735 5.735 0 0 0-4.89-4.8h-15.29a1 1 0 0 1-.94-1.33 31.427 31.427 0 0 0 1.32-4.57c1.44-5.418.802-9.98-4.02-13.06a4.584 4.584 0 0 0-7 4.01c.014 2.202.52 5.743-.38 7.78a55.92 55.92 0 0 1-5.38 10.73l-1.09 1.17a6.114 6.114 0 0 1 1.1 3.54v20.79a6.329 6.329 0 0 1-.93 3.29 8.148 8.148 0 0 0 3.76 1.01h23.45a5.53 5.53 0 0 0 5.46-4.13 5.15 5.15 0 0 0-.66-3.77 5.116 5.116 0 0 0 2.72-2.71 5.178 5.178 0 0 0-.27-4.51 5.124 5.124 0 0 0 2.74-2.75 5.381 5.381 0 0 0-1.34-5.76 5.75 5.75 0 0 0 1.64-4.93zM17.089 29.138H4.999a1.003 1.003 0 0 0-1 1v27.37a1.003 1.003 0 0 0 1 1h12.09a4.273 4.273 0 0 0 3.72-2.18 4.182 4.182 0 0 0 .56-2.11v-20.79a4.29 4.29 0 0 0-4.28-4.29zM46.499 12.998a4.507 4.507 0 0 1 4.5 4.5 1 1 0 0 0 2 0 4.507 4.507 0 0 1 4.5-4.5 1 1 0 0 0 0-2 4.507 4.507 0 0 1-4.5-4.5 1 1 0 0 0-2 0 4.507 4.507 0 0 1-4.5 4.5 1 1 0 0 0 0 2zM12.499 12.998a4.507 4.507 0 0 1 4.5 4.5 1 1 0 0 0 2 0 4.507 4.507 0 0 1 4.5-4.5 1 1 0 0 0 0-2 4.507 4.507 0 0 1-4.5-4.5 1 1 0 0 0-2 0 4.507 4.507 0 0 1-4.5 4.5 1 1 0 0 0 0 2z" fill="#ff0c0e" data-original="#000000" class=""></path></g></svg>